<?xml version="1.0" encoding="utf-8"?>
<!-- Generator: Adobe Illustrator 21.0.0, SVG Export Plug-In . SVG Version: 6.00 Build 0)  -->
<svg version="1.1" id="Layer_1" xmlns="http://www.w3.org/2000/svg" xmlns:xlink="http://www.w3.org/1999/xlink" x="0px" y="0px"
	 viewBox="0 0 98 62" style="enable-background:new 0 0 98 62;" xml:space="preserve">
<style type="text/css">
	.st0{enable-background:new    ;}
	.st1{fill:#FFFFFF;}
	.st2{fill:#F2C879;}
</style>
<title>Group 2</title>
<desc>Created with Sketch.</desc>
<g id="Page-1">
	<g id="Desktop-HD" transform="translate(-34.000000, -16.000000)">
		<g id="Group-2" transform="translate(34.000000, 16.000000)">
			<g class="st0">
				<path class="st1" d="M21.6,54.4c0,4.1-3,7.1-7.1,7.1c-4.1,0-7.1-2.9-7.1-7.1c0-3.9,3.4-6.6,7.1-6.6S21.6,50.5,21.6,54.4z
					 M10.9,54.4c0,2.2,1.6,3.8,3.6,3.8s3.6-1.6,3.6-3.8c0-1.8-1.6-3.4-3.6-3.4S10.9,52.6,10.9,54.4z"/>
				<path class="st1" d="M33.8,61h-4.1l-3.1-4.9h0V61h-3.3V48.2h5c2.5,0,4.5,1.2,4.5,3.9c0,1.8-1,3.3-2.8,3.6L33.8,61z M26.5,53.9
					h0.3c1.1,0,2.3-0.2,2.3-1.6c0-1.4-1.2-1.6-2.3-1.6h-0.3V53.9z"/>
				<path class="st1" d="M38.1,58.2h4V61h-7.3V48.2h3.3V58.2z"/>
				<path class="st1" d="M46.4,58.8L45.5,61H42l4.9-12.8h3.6L55.4,61h-3.6L51,58.8H46.4z M48.7,52.1L48.7,52.1l-1.4,4.1h2.8
					L48.7,52.1z"/>
				<path class="st1" d="M56.4,48.2h3.3l6.1,7.8h0v-7.8h3.3V61h-3.3l-6.1-7.9h0V61h-3.3V48.2z"/>
				<path class="st1" d="M71.4,48.2h4.7c3.6,0,6.5,2.8,6.5,6.4c0,3.6-3,6.4-6.5,6.4h-4.7V48.2z M74.7,58.2h0.7c2,0,3.7-1.1,3.7-3.6
					c0-2.3-1.5-3.6-3.7-3.6h-0.8V58.2z"/>
				<path class="st1" d="M97.7,54.4c0,4.1-3,7.1-7.1,7.1c-4.1,0-7.1-2.9-7.1-7.1c0-3.9,3.4-6.6,7.1-6.6S97.7,50.5,97.7,54.4z
					 M87,54.4c0,2.2,1.6,3.8,3.6,3.8c2,0,3.6-1.6,3.6-3.8c0-1.8-1.6-3.4-3.6-3.4C88.6,51,87,52.6,87,54.4z"/>
			</g>
		</g>
	</g>
</g>
<g>
	<path class="st1" d="M21.1,13.1H29L17.9,45.8h-7.1L0.4,13.1h7.9l6.2,20.1L21.1,13.1z"/>
	<path class="st1" d="M47.5,26.8c0,1.9-0.3,3.6-1,5.2c-0.7,1.6-1.7,3.1-2.9,4.3c-1.2,1.2-2.6,2.2-4.3,2.9c-1.6,0.7-3.4,1.1-5.2,1.1
		v5.4h-7.5V13.1h7.5c1.9,0,3.6,0.4,5.2,1.1c1.6,0.7,3,1.7,4.3,3c1.2,1.2,2.2,2.7,2.9,4.3C47.1,23.2,47.5,24.9,47.5,26.8z M34.1,32.9
		c0.8,0,1.6-0.2,2.3-0.6c0.7-0.3,1.3-0.8,1.9-1.3c0.5-0.5,1-1.2,1.3-1.9c0.3-0.7,0.5-1.5,0.5-2.4c0-0.8-0.2-1.6-0.5-2.4
		c-0.3-0.7-0.7-1.4-1.3-1.9c-0.5-0.5-1.2-1-1.9-1.3c-0.7-0.3-1.5-0.5-2.3-0.6V32.9z"/>
	<path class="st1" d="M56.1,13.1c2.2,0.1,4.2,0.7,6.1,1.6c1.9,0.9,3.6,2.1,5,3.6c1.4,1.5,2.5,3.2,3.3,5.1c0.8,1.9,1.2,4,1.2,6.2
		c0,2.2-0.4,4.2-1.2,6.1c-0.8,1.9-1.9,3.6-3.3,5c-1.4,1.4-3,2.6-4.9,3.5c-1.9,0.9-3.9,1.4-6.1,1.5h-7.5V13.1H56.1L56.1,13.1z
		 M56.1,38.2c1.1-0.1,2.2-0.4,3.2-0.9c1-0.5,1.8-1.1,2.6-1.9c0.7-0.8,1.3-1.6,1.7-2.6c0.4-1,0.6-2.1,0.6-3.2c0-1.1-0.2-2.2-0.6-3.3
		c-0.4-1-1-2-1.7-2.8c-0.7-0.8-1.6-1.5-2.6-2c-1-0.5-2-0.8-3.2-1V38.2z"/>
	<g>
		<path class="st2" d="M94.1,20.8c0,0.4-0.3,0.7-0.7,0.7c-0.4,0-0.7-0.3-0.7-0.7c0-0.4,0.3-0.7,0.7-0.7
			C93.8,20.1,94.1,20.4,94.1,20.8"/>
		<path class="st2" d="M75.7,21.2c0,0.4-0.3,0.7-0.7,0.7c-0.4,0-0.7-0.3-0.7-0.7c0-0.4,0.3-0.7,0.7-0.7
			C75.4,20.5,75.7,20.8,75.7,21.2"/>
		<g>
			<path class="st2" d="M88,1.2c-1.9,0.3-1.3-1.6-3.6-1.1h-0.3v4.5h0.3V1.9c1.4-0.5,1.5,1.3,3.7-0.6C88.2,1.2,88.1,1.2,88,1.2z"/>
		</g>
		<g>
			<path class="st2" d="M81.6,8.4c-1.1,0.2-0.9-0.8-1.9-0.6h-0.2v2.3h0.2V8.8C80.4,8.5,80.5,9.4,81.6,8.4
				C81.6,8.4,81.6,8.4,81.6,8.4z"/>
		</g>
		<g>
			<path class="st2" d="M91.4,8.3c-1.3,0.2-1.1-1-2.4-0.7h-0.2v3H89V8.8C89.9,8.4,90,9.6,91.4,8.3C91.5,8.4,91.5,8.3,91.4,8.3z"/>
		</g>
		<path class="st2" d="M93.4,20.6c0,2.8-2.8,6.2-2.8,6.2h1.3v3.5h-2V17.8h1.7C89.5,16.1,88.8,9,88.8,9c0,4.5-2.7,8.7-2.7,8.7h1.8
			v5.3h-2.2V10.5h1.8c-2.3-2.2-3.2-8.9-3.2-8.9c0,4.6-3.1,8.9-3.1,8.9h2.1v12.6h-2.7v-5h1.6c-2-2-2.6-9.2-2.6-9.2
			c-0.7,5.5-3.4,9.2-3.4,9.2h1.6v12.6H76V29h1.3c-1.6-1.5-2.4-8.3-2.4-8.3c0,3.7-3,8.3-3,8.3h1.3v16.5l0,0v0.5h6.8v-5.3
			c0,0,3.5-2.5,7.5,0c0,2.8,0.1,4.5,0.1,5.3h6.8v-1V26.8h1.5C94,25.2,93.4,20.6,93.4,20.6z"/>
	</g>
</g>
</svg>
